<svg xmlns="http://www.w3.org/2000/svg" xmlns:xlink="http://www.w3.org/1999/xlink" width="1080" zoomAndPan="magnify" viewBox="0 0 810 809.999993" height="1080" preserveAspectRatio="xMidYMid meet" version="1.0"><defs><g/></defs><rect x="-81" width="972" fill="#ffffff" y="-80.999999" height="971.999992" fill-opacity="1"/><rect x="-81" width="972" fill="#ffffff" y="-80.999999" height="971.999992" fill-opacity="1"/><g fill="#029d52" fill-opacity="1"><g transform="translate(0.0000035, 337.839995)"><g><path d="M 380.15625 0 L 296.703125 0 L 249.890625 -181.5625 C 248.148438 -188.019531 245.191406 -201.375 241.015625 -221.625 C 236.835938 -241.882812 234.4375 -255.484375 233.8125 -262.421875 C 232.863281 -253.910156 230.5 -240.238281 226.71875 -221.40625 C 222.9375 -202.570312 220.019531 -189.132812 217.96875 -181.09375 L 171.40625 0 L 88.1875 0 L 0 -345.640625 L 72.109375 -345.640625 L 116.3125 -156.984375 C 124.039062 -122.148438 129.632812 -91.96875 133.09375 -66.4375 C 134.039062 -75.414062 136.207031 -89.320312 139.59375 -108.15625 C 142.988281 -126.988281 146.179688 -141.609375 149.171875 -152.015625 L 199.53125 -345.640625 L 268.796875 -345.640625 L 319.15625 -152.015625 C 321.363281 -143.347656 324.117188 -130.109375 327.421875 -112.296875 C 330.734375 -94.484375 333.257812 -79.195312 335 -66.4375 C 336.570312 -78.726562 339.09375 -94.050781 342.5625 -112.40625 C 346.03125 -130.769531 349.179688 -145.628906 352.015625 -156.984375 L 395.984375 -345.640625 L 468.09375 -345.640625 Z M 380.15625 0 "/></g></g></g><g fill="#029d52" fill-opacity="1"><g transform="translate(312.657789, 808.986773)"><g><path d="M 227.796875 0 L 127.9375 -325.390625 L 125.390625 -325.390625 C 128.984375 -259.203125 130.78125 -215.039062 130.78125 -192.90625 L 130.78125 0 L 52.203125 0 L 52.203125 -414.75 L 171.921875 -414.75 L 270.078125 -97.59375 L 271.78125 -97.59375 L 375.890625 -414.75 L 495.609375 -414.75 L 495.609375 0 L 413.625 0 L 413.625 -196.3125 C 413.625 -205.582031 413.765625 -216.269531 414.046875 -228.375 C 414.328125 -240.476562 415.601562 -272.628906 417.875 -324.828125 L 415.328125 -324.828125 L 308.375 0 Z M 227.796875 0 "/></g></g></g></svg>